<svg version="1.1" xmlns="http://www.w3.org/2000/svg" xmlns:xlink="http://www.w3.org/1999/xlink" width="165" height="23"><defs/><g><path fill="rgb(0,0,0)" stroke="none" paint-order="stroke fill markers" fill-rule="evenodd" d=" M 70.33187961578369 14.355820178985596 C 70.33187961578369 14.355820178985596 75.36411380767822 14.355820178985596 75.36411380767822 14.355820178985596 C 75.51106548309326 14.355820178985596 75.60293292999268 14.195214331150055 75.52945709228516 14.066677927970886 C 75.52945709228516 14.066677927970886 71.3129768371582 6.698723018169403 71.3129768371582 6.698723018169403 C 71.23931980133057 6.570186614990234 71.05576610565186 6.570703864097595 70.98183727264404 6.699240267276764 C 70.18510913848877 8.086502373218536 69.72867107391357 9.697733342647552 69.72867107391357 11.416552126407623 C 69.72867107391357 12.392859816551208 69.8760757446289 13.334770441055298 70.14941310882568 14.220300912857056 C 70.17405605316162 14.300733149051666 70.24798488616943 14.355820178985596 70.33187961578369 14.355820178985596 C 70.33187961578369 14.355820178985596 70.33187961578369 14.355820178985596 70.33187961578369 14.355820178985596 Z M 70.33187961578369 14.355820178985596 C 70.33187961578369 14.355820178985596 70.33187961578369 14.355820178985596 70.33187961578369 14.355820178985596 M 79.0637264251709 1.998221755027771 C 79.0637264251709 1.998221755027771 79.06037425994873 1.998221755027771 79.06037425994873 1.998221755027771 C 76.35073757171631 1.998221755027771 73.91054248809814 3.1643598675727844 72.20583057403564 5.026198029518127 C 72.1490249633789 5.088009297847748 72.13869667053223 5.180079638957977 72.1805534362793 5.2535290122032166 C 72.1805534362793 5.2535290122032166 74.69422435760498 9.647818803787231 74.69422435760498 9.647818803787231 C 74.76788139343262 9.7763552069664 74.95161628723145 9.7763552069664 75.02509212493896 9.647818803787231 C 75.02509212493896 9.647818803787231 79.22807312011719 2.2871053814888 79.22807312011719 2.2871053814888 C 79.30109596252441 2.1593448519706726 79.21013450622559 1.998221755027771 79.0637264251709 1.998221755027771 C 79.0637264251709 1.998221755027771 79.0637264251709 1.998221755027771 79.0637264251709 1.998221755027771 Z M 79.0637264251709 1.998221755027771 C 79.0637264251709 1.998221755027771 79.0637264251709 1.998221755027771 79.0637264251709 1.998221755027771 M 87.7912244796753 8.484008312225342 C 87.7912244796753 8.484008312225342 82.76071166992188 8.484008312225342 82.76071166992188 8.484008312225342 C 82.61375999450684 8.484008312225342 82.52189254760742 8.644614160060883 82.59536838531494 8.773150563240051 C 82.59536838531494 8.773150563240051 86.80867767333984 16.133346736431122 86.80867767333984 16.133346736431122 C 86.88215351104736 16.26188313961029 87.06588840484619 16.26136589050293 87.13954544067383 16.13282948732376 C 87.93609237670898 14.74608463048935 88.392258644104 13.135112285614014 88.392258644104 11.416552126407623 C 88.392258644104 10.442830681800842 88.24575996398926 9.503506302833557 87.9736909866333 8.619786202907562 C 87.94904804229736 8.539095342159271 87.87484741210938 8.484008312225342 87.7912244796753 8.484008312225342 C 87.7912244796753 8.484008312225342 87.7912244796753 8.484008312225342 87.7912244796753 8.484008312225342 Z M 87.7912244796753 8.484008312225342 C 87.7912244796753 8.484008312225342 87.7912244796753 8.484008312225342 87.7912244796753 8.484008312225342 M 87.14778995513916 6.714757740497589 C 85.86427307128906 4.470413863658905 83.6897144317627 2.81056147813797 81.11226177215576 2.226845860481262 C 81.03054141998291 2.208224892616272 80.94601249694824 2.245208203792572 80.90424633026123 2.318398952484131 C 80.90424633026123 2.318398952484131 78.38858222961426 6.716050863265991 78.38858222961426 6.716050863265991 C 78.31510639190674 6.84458726644516 78.40697383880615 7.005193114280701 78.55401611328125 7.005193114280701 C 78.55401611328125 7.005193114280701 86.98199367523193 7.003124117851257 86.98199367523193 7.003124117851257 C 87.12858295440674 7.003124117851257 87.22108459472656 6.843035519123077 87.14778995513916 6.714757740497589 C 87.14778995513916 6.714757740497589 87.14778995513916 6.714757740497589 87.14778995513916 6.714757740497589 Z M 87.14778995513916 6.714757740497589 C 87.14778995513916 6.714757740497589 87.14778995513916 6.714757740497589 87.14778995513916 6.714757740497589 M 79.5560417175293 15.828428387641907 C 79.5560417175293 15.828428387641907 71.14237880706787 15.836445748806 71.14237880706787 15.836445748806 C 70.99578952789307 15.83670437335968 70.90346908569336 15.99679297208786 70.97676372528076 16.124812126159668 C 72.25946521759033 18.363466262817383 74.42831611633301 20.01943928003311 76.99924564361572 20.60444802045822 C 77.08096599578857 20.62281036376953 77.16549491882324 20.58608567714691 77.20726108551025 20.512636303901672 C 77.20726108551025 20.512636303901672 79.72156620025635 16.117570638656616 79.72156620025635 16.117570638656616 C 79.79531383514404 15.989034235477448 79.70326519012451 15.828169763088226 79.5560417175293 15.828428387641907 C 79.5560417175293 15.828428387641907 79.5560417175293 15.828428387641907 79.5560417175293 15.828428387641907 Z M 79.5560417175293 15.828428387641907 C 79.5560417175293 15.828428387641907 79.5560417175293 15.828428387641907 79.5560417175293 15.828428387641907 M 83.42715835571289 13.183992326259613 C 83.35368251800537 13.055455923080444 83.16994762420654 13.055455923080444 83.09647178649902 13.183733701705933 C 83.09647178649902 13.183733701705933 78.882981300354 20.545998871326447 78.882981300354 20.545998871326447 C 78.8096866607666 20.674018025398254 78.90055751800537 20.834882497787476 79.04705619812012 20.835141122341156 C 79.04705619812012 20.835141122341156 79.06037425994873 20.835141122341156 79.06037425994873 20.835141122341156 C 81.77091693878174 20.835141122341156 84.2111120223999 19.668744385242462 85.91600513458252 17.80638897418976 C 85.97281074523926 17.744319081306458 85.98313903808594 17.651990115642548 85.94110107421875 17.57905799150467 C 85.94110107421875 17.57905799150467 83.42715835571289 13.183992326259613 83.42715835571289 13.183992326259613 Z M 83.42715835571289 13.183992326259613 C 83.42715835571289 13.183992326259613 83.42715835571289 13.183992326259613 83.42715835571289 13.183992326259613 M 4.145461082458496 13.995814800262451 C 4.220658302307129 14.890914380550385 4.2463884353637695 16.142915844917297 4.2463884353637695 17.34500277042389 C 4.2463884353637695 17.34500277042389 4.2463884353637695 20.43815243244171 4.2463884353637695 20.43815243244171 C 4.2463884353637695 20.540050506591797 4.1197309494018555 20.668069660663605 4.018531799316406 20.668069660663605 C 4.018531799316406 20.668069660663605 1.2324295043945312 20.668069660663605 1.2324295043945312 20.668069660663605 C 1.1055002212524414 20.668069660663605 1.004572868347168 20.540050506591797 1.004572868347168 20.43815243244171 C 1.004572868347168 20.43815243244171 1.004572868347168 2.9525463581085205 1.004572868347168 2.9525463581085205 C 1.004572868347168 2.77357816696167 1.1313209533691406 2.6204724311828613 1.2324295043945312 2.6204724311828613 C 1.2324295043945312 2.6204724311828613 6.881099700927734 2.6204724311828613 6.881099700927734 2.6204724311828613 C 11.287203788757324 2.6204724311828613 13.365002632141113 5.253787636756897 13.365002632141113 8.346678674221039 C 13.365002632141113 11.848713755607605 10.984149932861328 14.072884917259216 6.601692199707031 14.072884917259216 C 5.613800048828125 14.072884917259216 4.778567314147949 14.047022461891174 4.145461082458496 13.995814800262451 Z M 9.996257781982422 8.37176525592804 C 9.996257781982422 6.429753482341766 9.033099174499512 5.023870408535004 6.6275129318237305 5.023870408535004 C 5.791193008422852 5.023870408535004 4.955960273742676 4.997490704059601 4.170194625854492 4.946541666984558 C 4.220658302307129 5.790692210197449 4.2463884353637695 7.323818564414978 4.2463884353637695 8.269608557224274 C 4.2463884353637695 9.368762910366058 4.220658302307129 10.877837181091309 4.170194625854492 11.77190226316452 C 4.829030990600586 11.720694601535797 5.639620780944824 11.720694601535797 6.272727012634277 11.720694601535797 C 8.730045318603516 11.720694601535797 9.996257781982422 10.698610365390778 9.996257781982422 8.37176525592804 Z M 27.860127449035645 9.828597366809845 C 27.809663772583008 8.806771755218506 27.809663772583008 7.707617402076721 27.809663772583008 6.633549630641937 C 27.809663772583008 6.633549630641937 27.809663772583008 2.876510739326477 27.809663772583008 2.876510739326477 C 27.809663772583008 2.7487502098083496 27.91059112548828 2.6204724311828613 28.03752040863037 2.6204724311828613 C 28.03752040863037 2.6204724311828613 30.79888916015625 2.6204724311828613 30.79888916015625 2.6204724311828613 C 30.899816513061523 2.6204724311828613 31.026745796203613 2.7487502098083496 31.026745796203613 2.876510739326477 C 31.026745796203613 2.876510739326477 31.026745796203613 20.43815243244171 31.026745796203613 20.43815243244171 C 31.026745796203613 20.540050506591797 30.899816513061523 20.668069660663605 30.79888916015625 20.668069660663605 C 30.79888916015625 20.668069660663605 28.03752040863037 20.668069660663605 28.03752040863037 20.668069660663605 C 27.91059112548828 20.668069660663605 27.809663772583008 20.540050506591797 27.809663772583008 20.43815243244171 C 27.809663772583008 20.43815243244171 27.809663772583008 15.964982151985168 27.809663772583008 15.964982151985168 C 27.809663772583008 14.762895226478577 27.809663772583008 13.535980343818665 27.860127449035645 12.385876953601837 C 26.847501754760742 12.43682599067688 26.239038467407227 12.43682599067688 25.37807559967041 12.43682599067688 C 25.37807559967041 12.43682599067688 21.452418327331543 12.43682599067688 21.452418327331543 12.43682599067688 C 20.591455459594727 12.43682599067688 19.958349227905273 12.43682599067688 18.944636344909668 12.385876953601837 C 18.995100021362305 13.535980343818665 19.020920753479004 14.762895226478577 19.020920753479004 15.964982151985168 C 19.020920753479004 15.964982151985168 19.020920753479004 20.43815243244171 19.020920753479004 20.43815243244171 C 19.020920753479004 20.540050506591797 18.89417266845703 20.668069660663605 18.79306411743164 20.668069660663605 C 18.79306411743164 20.668069660663605 16.006871223449707 20.668069660663605 16.006871223449707 20.668069660663605 C 15.879941940307617 20.668069660663605 15.779014587402344 20.540050506591797 15.779014587402344 20.43815243244171 C 15.779014587402344 20.43815243244171 15.779014587402344 2.876510739326477 15.779014587402344 2.876510739326477 C 15.779014587402344 2.7487502098083496 15.879941940307617 2.6204724311828613 16.006871223449707 2.6204724311828613 C 16.006871223449707 2.6204724311828613 18.79306411743164 2.6204724311828613 18.79306411743164 2.6204724311828613 C 18.89417266845703 2.6204724311828613 19.020920753479004 2.7487502098083496 19.020920753479004 2.876510739326477 C 19.020920753479004 2.876510739326477 19.020920753479004 6.633549630641937 19.020920753479004 6.633549630641937 C 19.020920753479004 7.707617402076721 18.995100021362305 8.806771755218506 18.944636344909668 9.828597366809845 C 19.73049259185791 9.777648329734802 20.591455459594727 9.752820372581482 21.50288200378418 9.752820372581482 C 21.50288200378418 9.752820372581482 25.327611923217773 9.752820372581482 25.327611923217773 9.752820372581482 C 26.239038467407227 9.752820372581482 27.075358390808105 9.777648329734802 27.860127449035645 9.828597366809845 Z M 52.261444091796875 11.362758219242096 C 52.261444091796875 17.139913499355316 48.412071228027344 21.000143587589264 43.143917083740234 21.000143587589264 C 38.10361957550049 21.000143587589264 34.02530288696289 17.21698361635208 34.02530288696289 11.362758219242096 C 34.02530288696289 5.6365519762039185 38.25510120391846 2.0323601961135864 43.143917083740234 2.0323601961135864 C 48.006821632385254 2.0323601961135864 52.261444091796875 5.534653902053833 52.261444091796875 11.362758219242096 Z M 48.690391540527344 11.362758219242096 C 48.690391540527344 6.812776446342468 46.41064739227295 4.665675401687622 43.16865062713623 4.665675401687622 C 39.876099586486816 4.665675401687622 37.596174240112305 6.7876898646354675 37.596174240112305 11.362758219242096 C 37.596174240112305 15.555062234401703 39.54731559753418 18.36708700656891 43.143917083740234 18.36708700656891 C 46.866451263427734 18.36708700656891 48.690391540527344 15.580924689769745 48.690391540527344 11.362758219242096 Z M 69.16713809967041 2.8245272040367126 C 69.16713809967041 2.8245272040367126 69.16713809967041 5.074560821056366 69.16713809967041 5.074560821056366 C 69.16713809967041 5.176458895206451 69.11567783355713 5.253787636756897 68.99001693725586 5.253787636756897 C 68.12878227233887 5.253787636756897 67.06469631195068 5.202579975128174 66.17791271209717 5.202579975128174 C 65.06327247619629 5.202579975128174 63.97445297241211 5.176458895206451 62.86062812805176 5.099647402763367 C 62.911091804504395 6.045437395572662 62.936097145080566 7.017607092857361 62.936097145080566 7.962879836559296 C 62.936097145080566 7.962879836559296 62.936097145080566 20.43815243244171 62.936097145080566 20.43815243244171 C 62.936097145080566 20.540050506591797 62.80916786193848 20.668069660663605 62.70796871185303 20.668069660663605 C 62.70796871185303 20.668069660663605 59.94759654998779 20.668069660663605 59.94759654998779 20.668069660663605 C 59.82093906402588 20.668069660663605 59.71973991394043 20.540050506591797 59.71973991394043 20.43815243244171 C 59.71973991394043 20.43815243244171 59.71973991394043 7.9116721749305725 59.71973991394043 7.9116721749305725 C 59.71973991394043 6.966658055782318 59.744473457336426 5.99448835849762 59.796024322509766 5.099647402763367 C 58.782583236694336 5.176458895206451 57.79460048675537 5.202579975128174 56.78197479248047 5.202579975128174 C 55.616689682006836 5.202579975128174 54.72999668121338 5.253787636756897 53.56489276885986 5.253787636756897 C 53.43796348571777 5.253787636756897 53.36258506774902 5.176458895206451 53.38749980926514 5.048698365688324 C 53.38749980926514 5.048698365688324 53.71628379821777 2.850648283958435 53.71628379821777 2.850648283958435 C 53.74210453033447 2.6975425481796265 53.79274940490723 2.6204724311828613 53.8936767578125 2.6204724311828613 C 53.8936767578125 2.6204724311828613 68.99001693725586 2.6204724311828613 68.99001693725586 2.6204724311828613 C 69.11567783355713 2.6204724311828613 69.16713809967041 2.6975425481796265 69.16713809967041 2.8245272040367126 Z M 90.96699333190918 20.668069660663605 C 90.84006404876709 20.668069660663605 90.73913669586182 20.540050506591797 90.73913669586182 20.43815243244171 C 90.73913669586182 20.43815243244171 90.73913669586182 2.876510739326477 90.73913669586182 2.876510739326477 C 90.73913669586182 2.7487502098083496 90.84006404876709 2.6204724311828613 90.96699333190918 2.6204724311828613 C 90.96699333190918 2.6204724311828613 97.0961103439331 2.6204724311828613 97.0961103439331 2.6204724311828613 C 101.70642471313477 2.6204724311828613 103.02337265014648 4.869730174541473 103.02337265014648 6.889587938785553 C 103.02337265014648 9.062810063362122 101.1744270324707 10.493779718875885 99.14817905426025 10.953872799873352 C 101.75706958770752 11.158962070941925 104.11219215393066 13.100715219974518 104.11219215393066 15.887912034988403 C 104.11219215393066 18.826921463012695 101.90855121612549 20.668069660663605 98.13446617126465 20.668069660663605 C 98.13446617126465 20.668069660663605 90.96699333190918 20.668069660663605 90.96699333190918 20.668069660663605 Z M 99.70509147644043 7.553735792636871 C 99.70509147644043 5.8416412472724915 98.74292945861816 4.997490704059601 96.46300411224365 4.997490704059601 C 95.70314979553223 4.997490704059601 94.66479396820068 4.9726627469062805 93.88002490997314 4.920679211616516 C 93.95630931854248 5.8416412472724915 93.98095226287842 6.710878372192383 93.98095226287842 7.579856872558594 C 93.98095226287842 8.448835372924805 93.95630931854248 9.420746445655823 93.88002490997314 10.263603866100311 C 94.56359481811523 10.186792373657227 95.32372093200684 10.161705791950226 96.0834846496582 10.161705791950226 C 98.66664505004883 10.161705791950226 99.70509147644043 9.113759100437164 99.70509147644043 7.553735792636871 Z M 100.79391098022461 15.427818953990936 C 100.79391098022461 13.561842799186707 99.62962245941162 12.334669291973114 96.76732635498047 12.334669291973114 C 95.8298978805542 12.334669291973114 94.74098777770996 12.308806836605072 93.88002490997314 12.25785779953003 C 93.95630931854248 13.203906416893005 93.98095226287842 14.225732028484344 93.98095226287842 15.299799799919128 C 93.98095226287842 16.321884036064148 93.95630931854248 17.318881690502167 93.88002490997314 18.342000424861908 C 95.01939868927002 18.291051387786865 96.36207675933838 18.265188932418823 97.55209541320801 18.265188932418823 C 99.7812852859497 18.265188932418823 100.79391098022461 17.318881690502167 100.79391098022461 15.427818953990936 Z M 124.20633888244629 11.362758219242096 C 124.20633888244629 17.139913499355316 120.35714721679688 21.000143587589264 115.08899307250977 21.000143587589264 C 110.0485143661499 21.000143587589264 105.97037887573242 17.21698361635208 105.97037887573242 11.362758219242096 C 105.97037887573242 5.6365519762039185 110.20017719268799 2.0323601961135864 115.08899307250977 2.0323601961135864 C 119.95189762115479 2.0323601961135864 124.20633888244629 5.534653902053833 124.20633888244629 11.362758219242096 Z M 120.63546752929688 11.362758219242096 C 120.63546752929688 6.812776446342468 118.35554218292236 4.665675401687622 115.11372661590576 4.665675401687622 C 111.82117557525635 4.665675401687622 109.54125022888184 6.7876898646354675 109.54125022888184 11.362758219242096 C 109.54125022888184 15.555062234401703 111.49211978912354 18.36708700656891 115.08899307250977 18.36708700656891 C 118.81125545501709 18.36708700656891 120.63546752929688 15.580924689769745 120.63546752929688 11.362758219242096 Z M 144.5048770904541 11.362758219242096 C 144.5048770904541 17.139913499355316 140.6554136276245 21.000143587589264 135.38735008239746 21.000143587589264 C 130.3468713760376 21.000143587589264 126.26873588562012 17.21698361635208 126.26873588562012 11.362758219242096 C 126.26873588562012 5.6365519762039185 130.49844360351562 2.0323601961135864 135.38735008239746 2.0323601961135864 C 140.25016403198242 2.0323601961135864 144.5048770904541 5.534653902053833 144.5048770904541 11.362758219242096 Z M 140.93382453918457 11.362758219242096 C 140.93382453918457 6.812776446342468 138.65389919281006 4.665675401687622 135.4119930267334 4.665675401687622 C 132.11953258514404 4.665675401687622 129.83960723876953 6.7876898646354675 129.83960723876953 11.362758219242096 C 129.83960723876953 15.555062234401703 131.79047679901123 18.36708700656891 135.38735008239746 18.36708700656891 C 139.1097936630249 18.36708700656891 140.93382453918457 15.580924689769745 140.93382453918457 11.362758219242096 Z M 150.6195888519287 20.43815243244171 C 150.6195888519287 20.540050506591797 150.49265956878662 20.668069660663605 150.39155101776123 20.668069660663605 C 150.39155101776123 20.668069660663605 147.60544872283936 20.668069660663605 147.60544872283936 20.668069660663605 C 147.47870063781738 20.668069660663605 147.377592086792 20.540050506591797 147.377592086792 20.43815243244171 C 147.377592086792 20.43815243244171 147.377592086792 2.876510739326477 147.377592086792 2.876510739326477 C 147.377592086792 2.7487502098083496 147.47870063781738 2.6204724311828613 147.60544872283936 2.6204724311828613 C 147.60544872283936 2.6204724311828613 150.39155101776123 2.6204724311828613 150.39155101776123 2.6204724311828613 C 150.49265956878662 2.6204724311828613 150.6195888519287 2.7487502098083496 150.6195888519287 2.876510739326477 C 150.6195888519287 2.876510739326477 150.6195888519287 7.093642711639404 150.6195888519287 7.093642711639404 C 150.6195888519287 8.167710483074188 150.59385871887207 9.266864836215973 150.54321384429932 10.135843336582184 C 150.54321384429932 10.135843336582184 151.0248384475708 10.135843336582184 151.0248384475708 10.135843336582184 C 151.4559087753296 10.135843336582184 152.7221212387085 8.832892835140228 154.46986770629883 6.710878372192383 C 155.48249340057373 5.508532822132111 156.6982421875 4.026614129543304 157.83761596679688 2.8245272040367126 C 157.96454524993896 2.6975425481796265 158.09120273590088 2.6204724311828613 158.24286556243896 2.6204724311828613 C 158.24286556243896 2.6204724311828613 161.48486232757568 2.6204724311828613 161.48486232757568 2.6204724311828613 C 161.61161041259766 2.6204724311828613 161.6880760192871 2.7487502098083496 161.6880760192871 2.901597321033478 C 161.6880760192871 3.0296164751052856 161.6373405456543 3.1317731738090515 161.56114673614502 3.1827222108840942 C 160.90221977233887 3.5406585931777954 159.18029403686523 5.330599129199982 156.95191955566406 7.809774100780487 C 155.63415622711182 9.21565717458725 154.39367389678955 10.493779718875885 153.83567428588867 10.825853645801544 C 154.34293842315674 11.030684292316437 155.78663444519043 12.616052806377411 157.50874137878418 14.532977998256683 C 159.58554363250732 16.884909689426422 162.0425901412964 19.440896153450012 162.802716255188 19.87616127729416 C 162.95428848266602 19.952196896076202 163.00475215911865 20.07995742559433 163.00475215911865 20.25918424129486 C 163.00475215911865 20.540050506591797 162.90382480621338 20.668069660663605 162.7768955230713 20.668069660663605 C 162.7768955230713 20.668069660663605 159.30695152282715 20.668069660663605 159.30695152282715 20.668069660663605 C 159.15556049346924 20.668069660663605 158.9781675338745 20.56591296195984 158.85123825073242 20.46298038959503 C 157.50874137878418 19.109080851078033 156.0144910812378 17.36983072757721 154.74818801879883 15.786013960838318 C 152.97471141815186 13.561842799186707 151.58156967163086 12.155701100826263 151.0248384475708 12.155701100826263 C 151.0248384475708 12.155701100826263 150.51848030090332 12.155701100826263 150.51848030090332 12.155701100826263 C 150.59385871887207 13.075887262821198 150.6195888519287 14.354009807109833 150.6195888519287 15.555062234401703 C 150.6195888519287 15.555062234401703 150.6195888519287 20.43815243244171 150.6195888519287 20.43815243244171 Z"/></g></svg>